<svg width="14" height="13" viewBox="0 0 14 13" fill="none" xmlns="http://www.w3.org/2000/svg">
    <path d="M1.1875 12.4531C0.78125 12.0469 0.796875 11.3516 1.17188 10.9688L5.46875 6.67188L1.17188 2.38281C0.796875 2 0.78125 1.30469 1.1875 0.898438C1.58594 0.492188 2.28906 0.507812 2.66406 0.890625L6.96094 5.17969L11.25 0.890625C11.6484 0.5 12.3203 0.5 12.7344 0.90625C13.1406 1.30469 13.1406 1.99219 12.7422 2.38281L8.45312 6.67188L12.7422 10.9688C13.1406 11.3594 13.1328 12.0391 12.7344 12.4453C12.3281 12.8516 11.6484 12.8516 11.25 12.4609L6.96094 8.16406L2.66406 12.4609C2.28906 12.8438 1.59375 12.8516 1.1875 12.4531Z" fill="#525252"/>
</svg>