<svg width="14" height="13" viewBox="0 0 14 13" fill="none" xmlns="http://www.w3.org/2000/svg">
    <path d="M6.99996 3.14585C7.24158 3.14585 7.43746 3.34173 7.43746 3.58335V7.08335C7.43746 7.32498 7.24158 7.52085 6.99996 7.52085C6.75833 7.52085 6.56246 7.32498 6.56246 7.08335V3.58335C6.56246 3.34173 6.75833 3.14585 6.99996 3.14585Z" fill="#FD3A3A"/>
    <path d="M6.99996 9.41669C7.32212 9.41669 7.58329 9.15552 7.58329 8.83335C7.58329 8.51119 7.32212 8.25002 6.99996 8.25002C6.67779 8.25002 6.41663 8.51119 6.41663 8.83335C6.41663 9.15552 6.67779 9.41669 6.99996 9.41669Z" fill="#FD3A3A"/>
    <path fill-rule="evenodd" clip-rule="evenodd" d="M0.729126 6.50002C0.729126 3.03673 3.53667 0.229187 6.99996 0.229187C10.4632 0.229187 13.2708 3.03673 13.2708 6.50002C13.2708 9.96331 10.4632 12.7709 6.99996 12.7709C3.53667 12.7709 0.729126 9.96331 0.729126 6.50002ZM6.99996 1.10419C4.01992 1.10419 1.60413 3.51998 1.60413 6.50002C1.60413 9.48006 4.01992 11.8959 6.99996 11.8959C9.98 11.8959 12.3958 9.48006 12.3958 6.50002C12.3958 3.51998 9.98 1.10419 6.99996 1.10419Z" fill="#FD3A3A"/>
</svg>